<svg xmlns="http://www.w3.org/2000/svg" xmlns:xlink="http://www.w3.org/1999/xlink" contentStyleType="text/css" data-diagram-type="SEQUENCE" height="471px" preserveAspectRatio="none" style="width:547px;height:471px;background:#FFFFFF;" version="1.1" viewBox="0 0 547 471" width="547px" zoomAndPan="magnify"><title>HTTP&#12522;&#12463;&#12456;&#12473;&#12488;&#20966;&#29702;&#12471;&#12490;&#12522;&#12458;</title><defs/><g><text fill="#000000" font-family="sans-serif" font-size="14" font-weight="bold" lengthAdjust="spacing" textLength="195.0765" x="177.0963" y="27.9951">HTTP&#12522;&#12463;&#12456;&#12473;&#12488;&#20966;&#29702;&#12471;&#12490;&#12522;&#12458;</text><rect fill="none" height="179.6016" style="stroke:#000000;stroke-width:1.5;" width="530.269" x="10" y="164.7266"/><rect fill="none" height="46.2656" style="stroke:#000000;stroke-width:1.5;" width="375.3071" x="20" y="247.125"/><line style="stroke:#181818;stroke-width:0.5;stroke-dasharray:5.0,5.0;" x1="53" x2="53" y1="118.5938" y2="390.4609"/><line style="stroke:#181818;stroke-width:0.5;stroke-dasharray:5.0,5.0;" x1="336.604" x2="336.604" y1="118.5938" y2="390.4609"/><line style="stroke:#181818;stroke-width:0.5;stroke-dasharray:5.0,5.0;" x1="489.4683" x2="489.4683" y1="118.5938" y2="390.4609"/><text fill="#000000" font-family="sans-serif" font-size="14" lengthAdjust="spacing" textLength="40.5303" x="30" y="115.292">Client</text><ellipse cx="53.2651" cy="50.7969" fill="#E2E2F0" rx="8" ry="8" style="stroke:#181818;stroke-width:0.5;"/><path d="M53.2651,58.7969 L53.2651,85.7969 M40.2651,66.7969 L66.2651,66.7969 M53.2651,85.7969 L40.2651,100.7969 M53.2651,85.7969 L66.2651,100.7969 " fill="none" style="stroke:#181818;stroke-width:0.5;"/><text fill="#000000" font-family="sans-serif" font-size="14" lengthAdjust="spacing" textLength="40.5303" x="30" y="402.4561">Client</text><ellipse cx="53.2651" cy="414.2578" fill="#E2E2F0" rx="8" ry="8" style="stroke:#181818;stroke-width:0.5;"/><path d="M53.2651,422.2578 L53.2651,449.2578 M40.2651,430.2578 L66.2651,430.2578 M53.2651,449.2578 L40.2651,464.2578 M53.2651,449.2578 L66.2651,464.2578 " fill="none" style="stroke:#181818;stroke-width:0.5;"/><rect fill="#E2E2F0" height="30.2969" rx="2.5" ry="2.5" style="stroke:#181818;stroke-width:0.5;" width="95.7031" x="289.604" y="87.2969"/><text fill="#000000" font-family="sans-serif" font-size="14" lengthAdjust="spacing" textLength="81.7031" x="296.604" y="107.292">Web Server</text><rect fill="#E2E2F0" height="30.2969" rx="2.5" ry="2.5" style="stroke:#181818;stroke-width:0.5;" width="95.7031" x="289.604" y="389.4609"/><text fill="#000000" font-family="sans-serif" font-size="14" lengthAdjust="spacing" textLength="81.7031" x="296.604" y="409.4561">Web Server</text><rect fill="#E2E2F0" height="30.2969" rx="2.5" ry="2.5" style="stroke:#181818;stroke-width:0.5;" width="80.8008" x="449.4683" y="87.2969"/><text fill="#000000" font-family="sans-serif" font-size="14" lengthAdjust="spacing" textLength="66.8008" x="456.4683" y="107.292">Database</text><rect fill="#E2E2F0" height="30.2969" rx="2.5" ry="2.5" style="stroke:#181818;stroke-width:0.5;" width="80.8008" x="449.4683" y="389.4609"/><text fill="#000000" font-family="sans-serif" font-size="14" lengthAdjust="spacing" textLength="66.8008" x="456.4683" y="409.4561">Database</text><polygon fill="#181818" points="325.4556,145.7266,335.4556,149.7266,325.4556,153.7266,329.4556,149.7266" style="stroke:#181818;stroke-width:1;"/><line style="stroke:#181818;stroke-width:1;" x1="53.2651" x2="331.4556" y1="149.7266" y2="149.7266"/><text fill="#000000" font-family="sans-serif" font-size="13" lengthAdjust="spacing" textLength="94.7959" x="60.2651" y="144.6606">sendRequest()</text><path d="M10,164.7266 L74.4429,164.7266 L74.4429,171.8594 L64.4429,181.8594 L10,181.8594 L10,164.7266 " fill="#EEEEEE" style="stroke:#000000;stroke-width:1.5;"/><rect fill="none" height="179.6016" style="stroke:#000000;stroke-width:1.5;" width="530.269" x="10" y="164.7266"/><text fill="#000000" font-family="sans-serif" font-size="13" font-weight="bold" lengthAdjust="spacing" textLength="19.4429" x="25" y="177.7935">alt</text><text fill="#000000" font-family="sans-serif" font-size="11" font-weight="bold" lengthAdjust="spacing" textLength="96.1372" x="89.4429" y="176.937">[Valid Request]</text><polygon fill="#181818" points="477.8687,198.9922,487.8687,202.9922,477.8687,206.9922,481.8687,202.9922" style="stroke:#181818;stroke-width:1;"/><line style="stroke:#181818;stroke-width:1;" x1="337.4556" x2="483.8687" y1="202.9922" y2="202.9922"/><text fill="#000000" font-family="sans-serif" font-size="13" lengthAdjust="spacing" textLength="128.4131" x="344.4556" y="197.9263">queryData(request)</text><polygon fill="#181818" points="348.4556,228.125,338.4556,232.125,348.4556,236.125,344.4556,232.125" style="stroke:#181818;stroke-width:1;"/><line style="stroke:#181818;stroke-width:1;stroke-dasharray:2.0,2.0;" x1="342.4556" x2="488.8687" y1="232.125" y2="232.125"/><text fill="#000000" font-family="sans-serif" font-size="13" lengthAdjust="spacing" textLength="29.2817" x="354.4556" y="227.0591">data</text><path d="M20,247.125 L96.624,247.125 L96.624,254.2578 L86.624,264.2578 L20,264.2578 L20,247.125 " fill="#EEEEEE" style="stroke:#000000;stroke-width:1.5;"/><rect fill="none" height="46.2656" style="stroke:#000000;stroke-width:1.5;" width="375.3071" x="20" y="247.125"/><text fill="#000000" font-family="sans-serif" font-size="13" font-weight="bold" lengthAdjust="spacing" textLength="31.624" x="35" y="260.1919">loop</text><text fill="#000000" font-family="sans-serif" font-size="11" font-weight="bold" lengthAdjust="spacing" textLength="161.3853" x="111.624" y="259.3354">[Process Each Data Entry]</text><polygon fill="#181818" points="64.2651,281.3906,54.2651,285.3906,64.2651,289.3906,60.2651,285.3906" style="stroke:#181818;stroke-width:1;"/><line style="stroke:#181818;stroke-width:1;" x1="58.2651" x2="336.4556" y1="285.3906" y2="285.3906"/><text fill="#000000" font-family="sans-serif" font-size="13" lengthAdjust="spacing" textLength="138.7979" x="70.2651" y="280.3247">sendResponse(entry)</text><line style="stroke:#000000;stroke-width:1;stroke-dasharray:2.0,2.0;" x1="10" x2="540.269" y1="301.3906" y2="301.3906"/><text fill="#000000" font-family="sans-serif" font-size="11" font-weight="bold" lengthAdjust="spacing" textLength="106.7183" x="15" y="311.6011">[Invalid Request]</text><polygon fill="#181818" points="64.2651,332.3281,54.2651,336.3281,64.2651,340.3281,60.2651,336.3281" style="stroke:#181818;stroke-width:1;"/><line style="stroke:#181818;stroke-width:1;" x1="58.2651" x2="336.4556" y1="336.3281" y2="336.3281"/><text fill="#000000" font-family="sans-serif" font-size="13" lengthAdjust="spacing" textLength="260.1904" x="70.2651" y="331.2622">sendErrorResponse("400 Bad Request")</text><polygon fill="#181818" points="64.2651,368.4609,54.2651,372.4609,64.2651,376.4609,60.2651,372.4609" style="stroke:#181818;stroke-width:1;"/><line style="stroke:#181818;stroke-width:1;" x1="58.2651" x2="336.4556" y1="372.4609" y2="372.4609"/><text fill="#000000" font-family="sans-serif" font-size="13" lengthAdjust="spacing" textLength="117.1841" x="70.2651" y="367.395">closeConnection()</text><!--SRC=[VOw_IWD148VxVOhXghiYaC8gXSNb3hGB6hIUx0suiEoUisCWxHseMFaK8cainUTPnDVm_iIG472hvJVVxviH8vRWOhbSn7ORcu_OlCVcAxRFtqzlFw-FiVcCxSimsYg5MZp3t1foecfaCThKw0IIMrh1DV6QE04Ck-ynKg3W2WCDG94hDNfWShx3Pn38LLTq_q11qaoX5RX1QohOPGgwDx9zgyXdqEMywSqfZqmsG4KEamDlrG53RhslOS5UKmXGehw3lWkb4zuCmF66ySA_kqBjNQ2KUdXSqyMAR22uTEj_3ZtKbCoUzwxaR3g57FV595EzyxIghGyqzywH5kDTclq2]--></g></svg>